<svg xmlns="http://www.w3.org/2000/svg" width="16" height="16" viewBox="0 0 16 16" fill="none">
<g clip-path="url(#clip0_2_480)">
<path d="M11.1833 3.20006L13.6889 5.70561C13.7944 5.81117 13.7944 5.98339 13.6889 6.08895L7.62222 12.1556L5.04444 12.4417C4.7 12.4806 4.40833 12.1889 4.44722 11.8445L4.73333 9.26672L10.8 3.20006C10.9056 3.0945 11.0778 3.0945 11.1833 3.20006ZM15.6833 2.56395L14.3278 1.20839C13.9056 0.786168 13.2194 0.786168 12.7944 1.20839L11.8111 2.19172C11.7056 2.29728 11.7056 2.4695 11.8111 2.57506L14.3167 5.08061C14.4222 5.18617 14.5944 5.18617 14.7 5.08061L15.6833 4.09728C16.1056 3.67228 16.1056 2.98617 15.6833 2.56395ZM10.6667 10.5056V13.3334H1.77778V4.4445H8.16111C8.25 4.4445 8.33333 4.40839 8.39722 4.34728L9.50833 3.23617C9.71944 3.02506 9.56944 2.66672 9.27222 2.66672H1.33333C0.597222 2.66672 0 3.26395 0 4.00006V13.7778C0 14.5139 0.597222 15.1112 1.33333 15.1112H11.1111C11.8472 15.1112 12.4444 14.5139 12.4444 13.7778V9.3945C12.4444 9.09728 12.0861 8.95006 11.875 9.15839L10.7639 10.2695C10.7028 10.3334 10.6667 10.4167 10.6667 10.5056Z" fill="#0C131B"/>
</g>
<defs>
<clipPath id="clip0_2_480">
<rect width="16" height="16" fill="white"/>
</clipPath>
</defs>
</svg>