<svg xmlns="http://www.w3.org/2000/svg" width="16" height="16" viewBox="0 0 16 16" fill="none">
<g clip-path="url(#clip0_2_483)">
<path d="M2 14.5C2 14.8978 2.15804 15.2794 2.43934 15.5607C2.72064 15.842 3.10218 16 3.5 16H12.5C12.8978 16 13.2794 15.842 13.5607 15.5607C13.842 15.2794 14 14.8978 14 14.5V4.00001H2V14.5ZM10.5 6.50001C10.5 6.3674 10.5527 6.24022 10.6464 6.14645C10.7402 6.05268 10.8674 6.00001 11 6.00001C11.1326 6.00001 11.2598 6.05268 11.3536 6.14645C11.4473 6.24022 11.5 6.3674 11.5 6.50001V13.5C11.5 13.6326 11.4473 13.7598 11.3536 13.8536C11.2598 13.9473 11.1326 14 11 14C10.8674 14 10.7402 13.9473 10.6464 13.8536C10.5527 13.7598 10.5 13.6326 10.5 13.5V6.50001ZM7.5 6.50001C7.5 6.3674 7.55268 6.24022 7.64645 6.14645C7.74021 6.05268 7.86739 6.00001 8 6.00001C8.13261 6.00001 8.25979 6.05268 8.35355 6.14645C8.44732 6.24022 8.5 6.3674 8.5 6.50001V13.5C8.5 13.6326 8.44732 13.7598 8.35355 13.8536C8.25979 13.9473 8.13261 14 8 14C7.86739 14 7.74021 13.9473 7.64645 13.8536C7.55268 13.7598 7.5 13.6326 7.5 13.5V6.50001ZM4.5 6.50001C4.5 6.3674 4.55268 6.24022 4.64645 6.14645C4.74021 6.05268 4.86739 6.00001 5 6.00001C5.13261 6.00001 5.25978 6.05268 5.35355 6.14645C5.44732 6.24022 5.5 6.3674 5.5 6.50001V13.5C5.5 13.6326 5.44732 13.7598 5.35355 13.8536C5.25978 13.9473 5.13261 14 5 14C4.86739 14 4.74021 13.9473 4.64645 13.8536C4.55268 13.7598 4.5 13.6326 4.5 13.5V6.50001ZM14.5 1.00001H10.75L10.4563 0.41563C10.394 0.290697 10.2982 0.185606 10.1795 0.11218C10.0608 0.0387537 9.92395 -9.46239e-05 9.78438 5.47897e-06H6.2125C6.07324 -0.00052985 5.93665 0.0381736 5.81838 0.111682C5.7001 0.18519 5.60492 0.290529 5.54375 0.41563L5.25 1.00001H1.5C1.36739 1.00001 1.24021 1.05268 1.14645 1.14645C1.05268 1.24022 1 1.3674 1 1.50001V2.50001C1 2.63261 1.05268 2.75979 1.14645 2.85356C1.24021 2.94733 1.36739 3.00001 1.5 3.00001H14.5C14.6326 3.00001 14.7598 2.94733 14.8536 2.85356C14.9473 2.75979 15 2.63261 15 2.50001V1.50001C15 1.3674 14.9473 1.24022 14.8536 1.14645C14.7598 1.05268 14.6326 1.00001 14.5 1.00001Z" fill="#F05697"/>
</g>
<defs>
<clipPath id="clip0_2_483">
<rect width="16" height="16" fill="white"/>
</clipPath>
</defs>
</svg>