<svg xmlns="http://www.w3.org/2000/svg" width="24" height="24" viewBox="0 0 24 24" fill="none">
  <path d="M22.5 16.875V1.125C22.5 0.501562 21.9984 0 21.375 0H6C3.51562 0 1.5 2.01562 1.5 4.5V19.5C1.5 21.9844 3.51562 24 6 24H21.375C21.9984 24 22.5 23.4984 22.5 22.875V22.125C22.5 21.7734 22.3359 21.4547 22.0828 21.2484C21.8859 20.5266 21.8859 18.4688 22.0828 17.7469C22.3359 17.5453 22.5 17.2266 22.5 16.875ZM7.5 6.28125C7.5 6.12656 7.62656 6 7.78125 6H17.7188C17.8734 6 18 6.12656 18 6.28125V7.21875C18 7.37344 17.8734 7.5 17.7188 7.5H7.78125C7.62656 7.5 7.5 7.37344 7.5 7.21875V6.28125ZM7.5 9.28125C7.5 9.12656 7.62656 9 7.78125 9H17.7188C17.8734 9 18 9.12656 18 9.28125V10.2188C18 10.3734 17.8734 10.5 17.7188 10.5H7.78125C7.62656 10.5 7.5 10.3734 7.5 10.2188V9.28125ZM19.3781 21H6C5.17031 21 4.5 20.3297 4.5 19.5C4.5 18.675 5.175 18 6 18H19.3781C19.2891 18.8016 19.2891 20.1984 19.3781 21Z" fill="white"/>
</svg>