<svg xmlns="http://www.w3.org/2000/svg" width="24" height="24" viewBox="0 0 24 24" fill="none">
  <g clip-path="url(#clip0_2_326)">
    <path d="M12 0.375C5.57967 0.375 0.375 5.57967 0.375 12C0.375 18.4203 5.57967 23.625 12 23.625C18.4203 23.625 23.625 18.4203 23.625 12C23.625 5.57967 18.4203 0.375 12 0.375ZM20.142 5.97933L17.1702 8.95116C16.6552 8.0812 15.92 7.34559 15.0488 6.82983L18.0207 3.858C18.8281 4.4571 19.5429 5.17189 20.142 5.97933ZM12 16.5C9.51473 16.5 7.5 14.4853 7.5 12C7.5 9.51473 9.51473 7.5 12 7.5C14.4853 7.5 16.5 9.51473 16.5 12C16.5 14.4853 14.4853 16.5 12 16.5ZM5.97933 3.858L8.95116 6.82983C8.0812 7.34484 7.34559 8.07998 6.82983 8.95116L3.858 5.97933C4.45709 5.17187 5.17187 4.45709 5.97933 3.858ZM3.858 18.0207L6.82983 15.0488C7.34484 15.9188 8.07998 16.6544 8.95116 17.1702L5.97933 20.142C5.17189 19.5429 4.4571 18.8281 3.858 18.0207ZM18.0207 20.142L15.0488 17.1702C15.9188 16.6552 16.6544 15.92 17.1702 15.0488L20.142 18.0207C19.5429 18.8281 18.8281 19.5429 18.0207 20.142Z" fill="#898989"/>
  </g>
  <defs>
    <clipPath id="clip0_2_326">
      <rect width="24" height="24" fill="white"/>
    </clipPath>
  </defs>
</svg>