<svg xmlns="http://www.w3.org/2000/svg" width="24" height="24" viewBox="0 0 24 24" fill="none">
  <path d="M23.2969 12.7969L15.4219 20.6719C14.7188 21.375 13.5 20.8828 13.5 19.875V15.375H7.125C6.50156 15.375 6 14.8735 6 14.25V9.75002C6 9.12658 6.50156 8.62502 7.125 8.62502H13.5V4.12502C13.5 3.1219 14.7141 2.62502 15.4219 3.32815L23.2969 11.2031C23.7328 11.6438 23.7328 12.3563 23.2969 12.7969ZM9 20.4375V18.5625C9 18.2531 8.74687 18 8.4375 18H4.5C3.67031 18 3 17.3297 3 16.5V7.50002C3 6.67033 3.67031 6.00002 4.5 6.00002H8.4375C8.74687 6.00002 9 5.7469 9 5.43752V3.56252C9 3.25315 8.74687 3.00002 8.4375 3.00002H4.5C2.01562 3.00002 0 5.01565 0 7.50002V16.5C0 18.9844 2.01562 21 4.5 21H8.4375C8.74687 21 9 20.7469 9 20.4375Z" fill="#898989"/>
</svg>