<svg xmlns="http://www.w3.org/2000/svg" width="24" height="24" viewBox="0 0 24 24" fill="none">
  <g clip-path="url(#clip0_2_328)">
    <path d="M23.7998 5.11412C23.6948 4.69083 23.1652 4.5474 22.8567 4.85583L19.3711 8.34146L16.1892 7.8113L15.6591 4.62943L19.1447 1.1438C19.455 0.83349 19.3055 0.30474 18.8794 0.198803C16.6584 -0.35151 14.213 0.241459 12.4772 1.97677C10.6191 3.8349 10.1077 6.52833 10.8811 8.87677L0.878433 18.8794C-0.292974 20.0508 -0.292974 21.9502 0.878433 23.1216C2.04984 24.293 3.94921 24.293 5.12062 23.1216L15.1148 13.1274C17.4642 13.9107 20.1525 13.3936 22.0228 11.5233C23.7605 9.78568 24.3525 7.33646 23.7998 5.11412ZM3 22.1251C2.3789 22.1251 1.87499 21.6211 1.87499 21.0001C1.87499 20.3785 2.3789 19.8751 3 19.8751C3.62109 19.8751 4.125 20.3785 4.125 21.0001C4.125 21.6211 3.62109 22.1251 3 22.1251Z" fill="#898989"/>
  </g>
  <defs>
    <clipPath id="clip0_2_328">
      <rect width="24" height="24" fill="white"/>
    </clipPath>
  </defs>
</svg>