<svg xmlns="http://www.w3.org/2000/svg" width="25" height="26" viewBox="0 0 25 26" fill="none">
  <g clip-path="url(#clip0_2_310)">
    <path d="M12.5 25.5C14.2246 25.5 15.6236 24.1011 15.6236 22.375H9.3765C9.3765 24.1011 10.7754 25.5 12.5 25.5ZM23.0171 18.1899C22.0738 17.1763 20.3086 15.6514 20.3086 10.6562C20.3086 6.8623 17.6485 3.8252 14.0616 3.08008V2.0625C14.0616 1.19971 13.3623 0.5 12.5 0.5C11.6377 0.5 10.9385 1.19971 10.9385 2.0625V3.08008C7.3516 3.8252 4.69144 6.8623 4.69144 10.6562C4.69144 15.6514 2.9263 17.1763 1.98294 18.1899C1.68998 18.5049 1.56009 18.8813 1.56253 19.25C1.5679 20.0508 2.19632 20.8125 3.12992 20.8125H21.8702C22.8037 20.8125 23.4327 20.0508 23.4375 19.25C23.44 18.8813 23.3101 18.5044 23.0171 18.1899Z" fill="#898989"/>
  </g>
  <defs>
    <clipPath id="clip0_2_310">
      <rect width="25" height="25" fill="white" transform="translate(0 0.5)"/>
    </clipPath>
  </defs>
</svg>